<svg xmlns="http://www.w3.org/2000/svg" version="1.1" width="1552" height="1342" style="overflow: hidden; display: block; top: 0px; left: 0px; right: 0px; bottom: 0px; position: fixed;"><defs></defs><g id="two_0" transform="matrix(1 0 0 1 0 0)" opacity="1"><g id="two_3" transform="matrix(1 0 0 1 0 0)" opacity="1"><path transform="matrix(1 0 0 1 200 160)" d="M -80 -120 L 80 -120 L 80 120 L -80 120 Z " fill="#bfffb3" stroke="black" stroke-width="1" stroke-opacity="1" fill-opacity="1" visibility="visible" stroke-linecap="butt" stroke-linejoin="miter" stroke-miterlimit="4" id="two_1"></path><text transform="matrix(1 0 0 1 200 175)" font-family="DejaVu Sans Mono" font-size="200" line-height="17" text-anchor="middle" dominant-baseline="middle" alignment-baseline="middle" font-style="normal" font-weight="500" text-decoration="none" fill="#000" stroke="transparent" stroke-width="1" opacity="1" visibility="visible" id="two_2">0</text></g><g id="two_6" transform="matrix(1 0 0 1 0 0)" opacity="1"><path transform="matrix(1 0 0 1 360 160)" d="M -80 -120 L 80 -120 L 80 120 L -80 120 Z " fill="#bfffb3" stroke="black" stroke-width="1" stroke-opacity="1" fill-opacity="1" visibility="visible" stroke-linecap="butt" stroke-linejoin="miter" stroke-miterlimit="4" id="two_4"></path><text transform="matrix(1 0 0 1 360 175)" font-family="DejaVu Sans Mono" font-size="200" line-height="17" text-anchor="middle" dominant-baseline="middle" alignment-baseline="middle" font-style="normal" font-weight="500" text-decoration="none" fill="#000" stroke="transparent" stroke-width="1" opacity="1" visibility="visible" id="two_5">1</text></g><g id="two_9" transform="matrix(1 0 0 1 0 0)" opacity="1"><path transform="matrix(1 0 0 1 520 160)" d="M -80 -120 L 80 -120 L 80 120 L -80 120 Z " fill="#bfffb3" stroke="black" stroke-width="1" stroke-opacity="1" fill-opacity="1" visibility="visible" stroke-linecap="butt" stroke-linejoin="miter" stroke-miterlimit="4" id="two_7"></path><text transform="matrix(1 0 0 1 520 175)" font-family="DejaVu Sans Mono" font-size="200" line-height="17" text-anchor="middle" dominant-baseline="middle" alignment-baseline="middle" font-style="normal" font-weight="500" text-decoration="none" fill="#000" stroke="transparent" stroke-width="1" opacity="1" visibility="visible" id="two_8">3</text></g><g id="two_12" transform="matrix(1 0 0 1 0 0)" opacity="1"><path transform="matrix(1 0 0 1 680 160)" d="M -80 -120 L 80 -120 L 80 120 L -80 120 Z " fill="#bfffb3" stroke="black" stroke-width="1" stroke-opacity="1" fill-opacity="1" visibility="visible" stroke-linecap="butt" stroke-linejoin="miter" stroke-miterlimit="4" id="two_10"></path><text transform="matrix(1 0 0 1 680 175)" font-family="DejaVu Sans Mono" font-size="200" line-height="17" text-anchor="middle" dominant-baseline="middle" alignment-baseline="middle" font-style="normal" font-weight="500" text-decoration="none" fill="#000" stroke="transparent" stroke-width="1" opacity="1" visibility="visible" id="two_11">5</text></g><g id="two_15" transform="matrix(1 0 0 1 0 0)" opacity="1"><path transform="matrix(1 0 0 1 840 160)" d="M -80 -120 L 80 -120 L 80 120 L -80 120 Z " fill="#ff9191" stroke="black" stroke-width="1" stroke-opacity="1" fill-opacity="1" visibility="visible" stroke-linecap="butt" stroke-linejoin="miter" stroke-miterlimit="4" id="two_13"></path><text transform="matrix(1 0 0 1 840 175)" font-family="DejaVu Sans Mono" font-size="200" line-height="17" text-anchor="middle" dominant-baseline="middle" alignment-baseline="middle" font-style="normal" font-weight="500" text-decoration="none" fill="#000" stroke="transparent" stroke-width="1" opacity="1" visibility="visible" id="two_14">6</text></g><g id="two_18" transform="matrix(1 0 0 1 0 0)" opacity="1"><path transform="matrix(1 0 0 1 1000 160)" d="M -80 -120 L 80 -120 L 80 120 L -80 120 Z " fill="#bfffb3" stroke="black" stroke-width="1" stroke-opacity="1" fill-opacity="1" visibility="visible" stroke-linecap="butt" stroke-linejoin="miter" stroke-miterlimit="4" id="two_16"></path><text transform="matrix(1 0 0 1 1000 175)" font-family="DejaVu Sans Mono" font-size="200" line-height="17" text-anchor="middle" dominant-baseline="middle" alignment-baseline="middle" font-style="normal" font-weight="500" text-decoration="none" fill="#000" stroke="transparent" stroke-width="1" opacity="1" visibility="visible" id="two_17">9</text></g><g id="two_20" transform="matrix(1 0 0 1 0 0)" opacity="1"><path transform="matrix(1 0 0 1 1160 160)" d="M -80 -120 L 80 -120 L 80 120 L -80 120 Z " fill="#cacaca" stroke="black" stroke-width="1" stroke-opacity="1" fill-opacity="1" visibility="visible" stroke-linecap="butt" stroke-linejoin="miter" stroke-miterlimit="4" id="two_19"></path></g><g id="two_24" transform="matrix(1 0 0 1 0 0)" opacity="1"><path transform="matrix(1 0 0 1 200 330)" d="M -25.981 15 L -0.001 -30 L 25.98 15 Z " fill="#000075" stroke="transparent" stroke-width="1" stroke-opacity="1" fill-opacity="1" visibility="visible" stroke-linecap="butt" stroke-linejoin="miter" stroke-miterlimit="4" id="two_21"></path><path transform="matrix(1 0 0 1 200 395)" d="M 0 -50 L 0 50 " fill="#fff" stroke="#000075" stroke-width="1" stroke-opacity="1" fill-opacity="1" visibility="visible" stroke-linecap="butt" stroke-linejoin="miter" stroke-miterlimit="4" id="two_22"></path><text transform="matrix(1 0 0 1 200 565)" font-family="DejaVu Sans Mono" font-size="200" line-height="17" text-anchor="middle" dominant-baseline="middle" alignment-baseline="middle" font-style="normal" font-weight="500" text-decoration="none" fill="#000075" stroke="transparent" stroke-width="1" opacity="1" visibility="visible" id="two_23">f</text></g><g id="two_28" transform="matrix(1 0 0 1 0 0)" opacity="1"><path transform="matrix(1 0 0 1 1160 330)" d="M -25.981 15 L -0.001 -30 L 25.98 15 Z " fill="#d80500" stroke="transparent" stroke-width="1" stroke-opacity="1" fill-opacity="1" visibility="visible" stroke-linecap="butt" stroke-linejoin="miter" stroke-miterlimit="4" id="two_25"></path><path transform="matrix(1 0 0 1 1160 395)" d="M 0 -50 L 0 50 " fill="#fff" stroke="#d80500" stroke-width="1" stroke-opacity="1" fill-opacity="1" visibility="visible" stroke-linecap="butt" stroke-linejoin="miter" stroke-miterlimit="4" id="two_26"></path><text transform="matrix(1 0 0 1 1160 565)" font-family="DejaVu Sans Mono" font-size="200" line-height="17" text-anchor="middle" dominant-baseline="middle" alignment-baseline="middle" font-style="normal" font-weight="500" text-decoration="none" fill="#d80500" stroke="transparent" stroke-width="1" opacity="1" visibility="visible" id="two_27">l</text></g></g></svg>